<svg width="138" height="146" viewBox="0 0 138 146" fill="none" xmlns="http://www.w3.org/2000/svg">
<path d="M135.08 3.04978L70.4705 99.1664L4.92017 3.04978L115.423 3.04978L70.4705 70.198L32.8811 14.6597M86.3792 14.6597L70.4705 38.24L53.756 14.6597" stroke="white" stroke-width="5"/>
<path d="M31.02 135.788H38.43V138.008H28.35V135.368L36.09 119.228H29.04V117.008H38.73V119.648L31.02 135.788ZM54.1364 132.908C54.1364 134.608 53.6664 135.888 52.7264 136.748C51.8064 137.588 50.4764 138.008 48.7364 138.008H47.7164C45.9764 138.008 44.6364 137.588 43.6964 136.748C42.7764 135.888 42.3164 134.608 42.3164 132.908V122.108C42.3164 120.408 42.7764 119.138 43.6964 118.298C44.6364 117.438 45.9764 117.008 47.7164 117.008H48.7364C50.4764 117.008 51.8064 117.438 52.7264 118.298C53.6664 119.138 54.1364 120.408 54.1364 122.108V132.908ZM51.5264 121.538C51.5264 120.918 51.2964 120.388 50.8364 119.948C50.3764 119.508 49.7764 119.288 49.0364 119.288H47.4164C46.6764 119.288 46.0764 119.508 45.6164 119.948C45.1564 120.388 44.9264 120.918 44.9264 121.538V133.478C44.9264 134.098 45.1564 134.628 45.6164 135.068C46.0764 135.508 46.6764 135.728 47.4164 135.728H49.0364C49.7764 135.728 50.3764 135.508 50.8364 135.068C51.2964 134.628 51.5264 134.098 51.5264 133.478V121.538ZM58.9348 138.008V117.008H61.5448V135.728H68.2348V138.008H58.9348ZM75.7535 138.008C74.0135 138.008 72.6735 137.588 71.7335 136.748C70.8135 135.888 70.3535 134.608 70.3535 132.908V122.108C70.3535 120.408 70.8135 119.138 71.7335 118.298C72.6735 117.438 74.0135 117.008 75.7535 117.008H79.8035V119.288H75.4535C74.7135 119.288 74.1135 119.508 73.6535 119.948C73.1935 120.388 72.9635 120.918 72.9635 121.538V133.478C72.9635 134.098 73.1935 134.628 73.6535 135.068C74.1135 135.508 74.7135 135.728 75.4535 135.728H78.2135V129.218H75.6935V126.968H80.7035V138.008H75.7535ZM85.3606 138.008V117.008H95.2006V119.198H87.9706V126.068H94.4506V128.258H87.9706V135.818H95.2006V138.008H85.3606ZM104.82 129.308H102.15V138.008H99.5403V117.008H104.91C106.61 117.008 107.89 117.388 108.75 118.148C109.63 118.888 110.07 120.068 110.07 121.688V124.568C110.07 126.828 109.17 128.238 107.37 128.798L111.54 138.008H108.69L104.82 129.308ZM107.46 121.418C107.46 120.658 107.28 120.108 106.92 119.768C106.58 119.428 106.03 119.258 105.27 119.258H102.15V127.058H105.27C106.03 127.058 106.58 126.888 106.92 126.548C107.28 126.188 107.46 125.628 107.46 124.868V121.418Z" fill="white"/>
</svg>
